<svg xmlns="http://www.w3.org/2000/svg" xmlns:xlink="http://www.w3.org/1999/xlink" aria-hidden="true" role="img" class="iconify iconify--logos" width="31.88" height="32" preserveAspectRatio="xMidYMid meet" viewBox="0 0 40 64"><defs><style>.cls-1{fill:#385cf2;}.cls-2{fill:#ccc;}.cls-3{fill:#999;}.cls-4{fill:none;stroke:#e6e6e6;stroke-miterlimit:10;stroke-width:2px;}</style></defs><g id="Layer_2" data-name="Layer 2"><g id="Layer_7" data-name="Layer 7"><path class="cls-1" d="M0,44A20,20,0,1,0,33.39,29.17,10,10,0,0,1,30,21.8V19H10v2.67a10.09,10.09,0,0,1-3.38,7.49A19.89,19.89,0,0,0,0,44Z"/><rect class="cls-2" x="8" y="15" width="24" height="4" rx="2" transform="translate(40 34) rotate(-180)"/><rect class="cls-3" x="9" y="11" width="22" height="4" rx="2" transform="translate(40 26) rotate(-180)"/><rect class="cls-2" x="10" y="7" width="20" height="4" rx="2" transform="translate(40 18) rotate(-180)"/><path class="cls-3" d="M27,7A7,7,0,0,0,13,7Z"/><polyline class="cls-4" points="15 19 15 35 25 35 25 19"/><path class="cls-4" d="M25,39a4,4,0,1,0,4-4H25Z"/><path class="cls-4" d="M11,35a4,4,0,1,0,4,4V35Z"/></g></g></svg>
